<svg id="Layer_1" data-name="Layer 1" xmlns="http://www.w3.org/2000/svg" viewBox="0 0 1920 800"><defs><style>.cls-1{fill:#fff;}</style></defs><g id="qm13RV.tif"><path class="cls-1" d="M536.49,330.25h72.37c0,42,2.17,82.25-.64,122.13-2.63,37.43,21.91,58.45,49.9,60.83,31.21,2.65,53.73-22.91,54.47-60.89.78-40.07.17-80.17.17-122.12h73.89c0,42-.23,82,.06,122.1.29,39.43,19.93,62.8,51.54,62.13,31-.67,51.66-25,52.2-63.18.54-39,.12-78,.12-120.06h76.32c-3,55.46-.67,109.7-10.07,161.84-13.53,75-105.51,113.61-175.73,78.53-10.84-5.42-20.64-12.9-29.72-9-38.55,6.42-77.26,18.83-115.6,17.76-48.33-1.36-94.26-47.23-98.32-95.19C533.16,434.41,536.49,383.05,536.49,330.25Z"/><path class="cls-1" d="M1811,327v-126h72.92v129.4c0,38,.36,75.94-.08,113.9-1,86.43-66.39,146.75-149.68,138.52C1655,575.05,1598.33,503.51,1612.28,429c15.59-83.3,93.55-129.6,178.48-106.06C1795.48,324.19,1800.37,324.87,1811,327Zm-.85,121.31c-.86-35.17-28.39-60.66-64.78-60-35.41.65-62.39,28.62-61.41,63.66.92,33.35,32.4,63.19,65,61.59C1783.09,511.9,1811,482.2,1810.11,448.32Z"/><path class="cls-1" d="M1010.08,448.33c.25-73.59,59.75-132.08,134.48-132.19C1220.08,316,1282,376,1282.87,450.25c.91,72.82-61.68,133.71-138.14,134.4C1070.11,585.32,1009.82,524.28,1010.08,448.33Zm199.39.85c-.7-34.91-28.33-60.66-64.88-60.47s-61.79,25.93-61.49,62.68c.27,33.62,30.85,63.58,63.57,62.27C1180.47,512.31,1210.13,481.86,1209.47,449.18Z"/><path class="cls-1" d="M287.35,571.93H220.14c0-53.2-6.64-106.3,1.67-157C232.28,351.1,295,312.63,363.08,316.8c62.94,3.85,115.94,52.93,122,117,3.56,37.68,1.84,75.86,2.08,113.82,0,7.08-1.88,14.16-3.19,23.31H416.37c0-39.2,1.23-78-.38-116.64-1.34-32-15.87-56.85-50-64.16-29.67-6.36-55.54,2.95-68.92,30.08-7.71,15.62-8.56,35.36-9.36,53.38C286.34,505.14,287.35,536.79,287.35,571.93Z"/><path class="cls-1" d="M1504.29,199.71h67.16V569.63h-67.16Z"/><path class="cls-1" d="M1319.67,570.35c2.87-52.45.86-103.86,9.61-153.41,10.75-60.84,68.42-100.83,129.48-97.57,1.41,31.9,15.12,64.79-33.24,81.37-15,5.16-26.51,36.66-29.24,57.44-4.71,35.89-1.3,72.83-1.3,112.17Z"/><path class="cls-1" d="M153.64,571.1c-7.9.82-13.86,1.88-19.84,2-14.72.26-29.44.08-50.71.08,0-35,.08-68.61,0-102.25-.14-52-13.33-69.87-64-85.24V321.19C118,306.86,173.47,408.28,153.64,571.1Z"/><path class="cls-1" d="M120.47,301.8c-31.13.62-57.14-23.68-57.68-53.89-.54-29.77,25.64-55.92,56-56a54.33,54.33,0,0,1,54.64,52.56C174.75,276.13,151.58,301.19,120.47,301.8Z"/></g></svg>